<mxfile host="app.diagrams.net" modified="2021-04-02T18:35:39.282Z" agent="5.0 (Windows NT 6.1) AppleWebKit/537.36 (KHTML, like Gecko) Chrome/89.0.4389.114 Safari/537.36" etag="wiqZ76q2ospM3RI_Erby" version="14.5.6" type="github" pages="2">
  <diagram id="R2lEEEUBdFMjLlhIrx00" name="Page-1">
    <mxGraphModel dx="3570" dy="1605" grid="1" gridSize="10" guides="1" tooltips="1" connect="1" arrows="1" fold="1" page="0" pageScale="1" pageWidth="850" pageHeight="1100" math="0" shadow="0" extFonts="Permanent Marker^https://fonts.googleapis.com/css?family=Permanent+Marker">
      <root>
        <mxCell id="0" />
        <mxCell id="1" parent="0" />
        <mxCell id="95Yf1RK7qpwSNx_Vrwnt-2" value="ACCOUNT" style="whiteSpace=wrap;html=1;align=center;direction=west;" vertex="1" parent="1">
          <mxGeometry x="810" y="140" width="100" height="40" as="geometry" />
        </mxCell>
        <mxCell id="95Yf1RK7qpwSNx_Vrwnt-3" value="CART" style="whiteSpace=wrap;html=1;align=center;" vertex="1" parent="1">
          <mxGeometry x="370" y="770" width="100" height="40" as="geometry" />
        </mxCell>
        <mxCell id="95Yf1RK7qpwSNx_Vrwnt-4" value="BOOK&lt;br&gt;" style="whiteSpace=wrap;html=1;align=center;" vertex="1" parent="1">
          <mxGeometry x="-260" y="760" width="100" height="40" as="geometry" />
        </mxCell>
        <mxCell id="95Yf1RK7qpwSNx_Vrwnt-5" value="USER" style="whiteSpace=wrap;html=1;align=center;" vertex="1" parent="1">
          <mxGeometry x="-140" y="180" width="100" height="40" as="geometry" />
        </mxCell>
        <mxCell id="95Yf1RK7qpwSNx_Vrwnt-8" value="ORDER&lt;br&gt;" style="whiteSpace=wrap;html=1;align=center;" vertex="1" parent="1">
          <mxGeometry x="970" y="760" width="100" height="40" as="geometry" />
        </mxCell>
        <mxCell id="uRdpHeNovBFYjoBfP8PL-3" value="EMAIL-ID&lt;br&gt;" style="ellipse;whiteSpace=wrap;html=1;align=center;" vertex="1" parent="1">
          <mxGeometry x="-500" y="110" width="100" height="40" as="geometry" />
        </mxCell>
        <mxCell id="uRdpHeNovBFYjoBfP8PL-4" value="NAME&lt;br&gt;" style="ellipse;whiteSpace=wrap;html=1;align=center;" vertex="1" parent="1">
          <mxGeometry x="-330" y="20" width="100" height="40" as="geometry" />
        </mxCell>
        <mxCell id="uRdpHeNovBFYjoBfP8PL-5" value="UID&lt;br&gt;" style="ellipse;whiteSpace=wrap;html=1;align=center;" vertex="1" parent="1">
          <mxGeometry x="-100" y="-10" width="100" height="40" as="geometry" />
        </mxCell>
        <mxCell id="uRdpHeNovBFYjoBfP8PL-6" value="CONTACT NO.&lt;br&gt;" style="ellipse;whiteSpace=wrap;html=1;align=center;" vertex="1" parent="1">
          <mxGeometry x="-400" y="370" width="100" height="40" as="geometry" />
        </mxCell>
        <mxCell id="uRdpHeNovBFYjoBfP8PL-7" value="PASSWORD&lt;br&gt;" style="ellipse;whiteSpace=wrap;html=1;align=center;" vertex="1" parent="1">
          <mxGeometry x="-500" y="240" width="100" height="40" as="geometry" />
        </mxCell>
        <mxCell id="uRdpHeNovBFYjoBfP8PL-10" value="PASSWORD" style="ellipse;whiteSpace=wrap;html=1;align=center;" vertex="1" parent="1">
          <mxGeometry x="1110" y="240" width="100" height="40" as="geometry" />
        </mxCell>
        <mxCell id="uRdpHeNovBFYjoBfP8PL-11" value="EMAIL-ID" style="ellipse;whiteSpace=wrap;html=1;align=center;" vertex="1" parent="1">
          <mxGeometry x="1100" y="10" width="100" height="40" as="geometry" />
        </mxCell>
        <mxCell id="uRdpHeNovBFYjoBfP8PL-12" value="CREATE" style="shape=rhombus;perimeter=rhombusPerimeter;whiteSpace=wrap;html=1;align=center;" vertex="1" parent="1">
          <mxGeometry x="400" y="220" width="120" height="60" as="geometry" />
        </mxCell>
        <mxCell id="uRdpHeNovBFYjoBfP8PL-13" value="DELETE" style="shape=rhombus;perimeter=rhombusPerimeter;whiteSpace=wrap;html=1;align=center;" vertex="1" parent="1">
          <mxGeometry x="380" y="-30" width="120" height="60" as="geometry" />
        </mxCell>
        <mxCell id="uRdpHeNovBFYjoBfP8PL-14" value="ADD" style="shape=rhombus;perimeter=rhombusPerimeter;whiteSpace=wrap;html=1;align=center;" vertex="1" parent="1">
          <mxGeometry x="150" y="480" width="120" height="60" as="geometry" />
        </mxCell>
        <mxCell id="uRdpHeNovBFYjoBfP8PL-15" value="VIEW" style="shape=rhombus;perimeter=rhombusPerimeter;whiteSpace=wrap;html=1;align=center;" vertex="1" parent="1">
          <mxGeometry x="360" y="490" width="120" height="60" as="geometry" />
        </mxCell>
        <mxCell id="uRdpHeNovBFYjoBfP8PL-16" value="REMOVE" style="shape=rhombus;perimeter=rhombusPerimeter;whiteSpace=wrap;html=1;align=center;" vertex="1" parent="1">
          <mxGeometry x="-100" y="490" width="120" height="60" as="geometry" />
        </mxCell>
        <mxCell id="uRdpHeNovBFYjoBfP8PL-17" value="EDIT&lt;br&gt;" style="shape=rhombus;perimeter=rhombusPerimeter;whiteSpace=wrap;html=1;align=center;" vertex="1" parent="1">
          <mxGeometry x="-280" y="480" width="120" height="60" as="geometry" />
        </mxCell>
        <mxCell id="uRdpHeNovBFYjoBfP8PL-19" value="TITLE" style="ellipse;whiteSpace=wrap;html=1;align=center;" vertex="1" parent="1">
          <mxGeometry x="-480" y="600" width="100" height="40" as="geometry" />
        </mxCell>
        <mxCell id="uRdpHeNovBFYjoBfP8PL-21" value="PUBLISHER" style="ellipse;whiteSpace=wrap;html=1;align=center;" vertex="1" parent="1">
          <mxGeometry x="-540" y="880" width="100" height="40" as="geometry" />
        </mxCell>
        <mxCell id="uRdpHeNovBFYjoBfP8PL-22" value="AUTHOR" style="ellipse;whiteSpace=wrap;html=1;align=center;" vertex="1" parent="1">
          <mxGeometry x="-530" y="730" width="100" height="40" as="geometry" />
        </mxCell>
        <mxCell id="uRdpHeNovBFYjoBfP8PL-23" value="PRICE FOR PURCHASE" style="ellipse;whiteSpace=wrap;html=1;align=center;" vertex="1" parent="1">
          <mxGeometry x="-210" y="1000" width="120" height="50" as="geometry" />
        </mxCell>
        <mxCell id="uRdpHeNovBFYjoBfP8PL-24" value="PRICE FOR RENT" style="ellipse;whiteSpace=wrap;html=1;align=center;" vertex="1" parent="1">
          <mxGeometry x="-410" y="990" width="100" height="50" as="geometry" />
        </mxCell>
        <mxCell id="uRdpHeNovBFYjoBfP8PL-25" value="ALLOWED TO" style="shape=rhombus;perimeter=rhombusPerimeter;whiteSpace=wrap;html=1;align=center;" vertex="1" parent="1">
          <mxGeometry x="640" y="760" width="120" height="60" as="geometry" />
        </mxCell>
        <mxCell id="uRdpHeNovBFYjoBfP8PL-26" value="ADD TO" style="shape=rhombus;perimeter=rhombusPerimeter;whiteSpace=wrap;html=1;align=center;" vertex="1" parent="1">
          <mxGeometry x="80" y="750" width="120" height="60" as="geometry" />
        </mxCell>
        <mxCell id="uRdpHeNovBFYjoBfP8PL-27" value="DELIVERY ADDRESS&lt;br&gt;" style="ellipse;whiteSpace=wrap;html=1;align=center;" vertex="1" parent="1">
          <mxGeometry x="1180" y="880" width="110" height="40" as="geometry" />
        </mxCell>
        <mxCell id="uRdpHeNovBFYjoBfP8PL-28" value="ORDER-ID" style="ellipse;whiteSpace=wrap;html=1;align=center;" vertex="1" parent="1">
          <mxGeometry x="1160" y="640" width="100" height="40" as="geometry" />
        </mxCell>
        <mxCell id="uRdpHeNovBFYjoBfP8PL-30" value="" style="edgeStyle=entityRelationEdgeStyle;fontSize=12;html=1;endArrow=ERmandOne;startArrow=ERmandOne;exitX=1;exitY=0.5;exitDx=0;exitDy=0;entryX=0;entryY=0.5;entryDx=0;entryDy=0;" edge="1" parent="1" source="95Yf1RK7qpwSNx_Vrwnt-5" target="uRdpHeNovBFYjoBfP8PL-12">
          <mxGeometry width="100" height="100" relative="1" as="geometry">
            <mxPoint x="480" y="490" as="sourcePoint" />
            <mxPoint x="580" y="390" as="targetPoint" />
          </mxGeometry>
        </mxCell>
        <mxCell id="uRdpHeNovBFYjoBfP8PL-31" value="" style="edgeStyle=entityRelationEdgeStyle;fontSize=12;html=1;endArrow=ERmandOne;startArrow=ERmandOne;exitX=1;exitY=0.25;exitDx=0;exitDy=0;entryX=0;entryY=1;entryDx=0;entryDy=0;" edge="1" parent="1" source="95Yf1RK7qpwSNx_Vrwnt-5" target="uRdpHeNovBFYjoBfP8PL-13">
          <mxGeometry width="100" height="100" relative="1" as="geometry">
            <mxPoint x="480" y="490" as="sourcePoint" />
            <mxPoint x="580" y="390" as="targetPoint" />
          </mxGeometry>
        </mxCell>
        <mxCell id="uRdpHeNovBFYjoBfP8PL-32" value="" style="edgeStyle=entityRelationEdgeStyle;fontSize=12;html=1;endArrow=ERmandOne;startArrow=ERmandOne;exitX=1;exitY=1;exitDx=0;exitDy=0;entryX=1;entryY=0.5;entryDx=0;entryDy=0;" edge="1" parent="1" source="95Yf1RK7qpwSNx_Vrwnt-2" target="uRdpHeNovBFYjoBfP8PL-13">
          <mxGeometry width="100" height="100" relative="1" as="geometry">
            <mxPoint x="480" y="490" as="sourcePoint" />
            <mxPoint x="580" y="390" as="targetPoint" />
          </mxGeometry>
        </mxCell>
        <mxCell id="uRdpHeNovBFYjoBfP8PL-33" value="" style="edgeStyle=entityRelationEdgeStyle;fontSize=12;html=1;endArrow=ERmandOne;startArrow=ERmandOne;exitX=1;exitY=0.5;exitDx=0;exitDy=0;" edge="1" parent="1" source="uRdpHeNovBFYjoBfP8PL-12">
          <mxGeometry width="100" height="100" relative="1" as="geometry">
            <mxPoint x="480" y="490" as="sourcePoint" />
            <mxPoint x="810" y="180" as="targetPoint" />
          </mxGeometry>
        </mxCell>
        <mxCell id="uRdpHeNovBFYjoBfP8PL-34" value="" style="edgeStyle=entityRelationEdgeStyle;fontSize=12;html=1;endArrow=ERmandOne;startArrow=ERmandOne;entryX=0;entryY=1;entryDx=0;entryDy=0;exitX=0;exitY=1;exitDx=0;exitDy=0;" edge="1" parent="1" source="95Yf1RK7qpwSNx_Vrwnt-2" target="uRdpHeNovBFYjoBfP8PL-11">
          <mxGeometry width="100" height="100" relative="1" as="geometry">
            <mxPoint x="480" y="490" as="sourcePoint" />
            <mxPoint x="580" y="390" as="targetPoint" />
          </mxGeometry>
        </mxCell>
        <mxCell id="uRdpHeNovBFYjoBfP8PL-35" value="" style="edgeStyle=entityRelationEdgeStyle;fontSize=12;html=1;endArrow=ERmandOne;startArrow=ERmandOne;exitX=0.25;exitY=0;exitDx=0;exitDy=0;entryX=0;entryY=0.5;entryDx=0;entryDy=0;" edge="1" parent="1" source="95Yf1RK7qpwSNx_Vrwnt-2" target="uRdpHeNovBFYjoBfP8PL-10">
          <mxGeometry width="100" height="100" relative="1" as="geometry">
            <mxPoint x="480" y="490" as="sourcePoint" />
            <mxPoint x="890" y="270" as="targetPoint" />
          </mxGeometry>
        </mxCell>
        <mxCell id="uRdpHeNovBFYjoBfP8PL-37" value="" style="edgeStyle=entityRelationEdgeStyle;fontSize=12;html=1;endArrow=ERmandOne;startArrow=ERmandOne;exitX=1;exitY=0;exitDx=0;exitDy=0;entryX=0;entryY=0.5;entryDx=0;entryDy=0;" edge="1" parent="1" source="uRdpHeNovBFYjoBfP8PL-7" target="95Yf1RK7qpwSNx_Vrwnt-5">
          <mxGeometry width="100" height="100" relative="1" as="geometry">
            <mxPoint x="480" y="490" as="sourcePoint" />
            <mxPoint x="580" y="390" as="targetPoint" />
          </mxGeometry>
        </mxCell>
        <mxCell id="uRdpHeNovBFYjoBfP8PL-39" value="" style="edgeStyle=entityRelationEdgeStyle;fontSize=12;html=1;endArrow=ERmandOne;startArrow=ERmandOne;entryX=0.5;entryY=1;entryDx=0;entryDy=0;exitX=0.5;exitY=0;exitDx=0;exitDy=0;exitPerimeter=0;" edge="1" parent="1" source="95Yf1RK7qpwSNx_Vrwnt-5" target="uRdpHeNovBFYjoBfP8PL-5">
          <mxGeometry width="100" height="100" relative="1" as="geometry">
            <mxPoint x="-130" y="170" as="sourcePoint" />
            <mxPoint x="-30" y="70" as="targetPoint" />
          </mxGeometry>
        </mxCell>
      </root>
    </mxGraphModel>
  </diagram>
  <diagram id="lOe2NaW6yn2KAZmGQnlL" name="Page-2">
    <mxGraphModel dx="2770" dy="1205" grid="1" gridSize="10" guides="1" tooltips="1" connect="1" arrows="1" fold="1" page="1" pageScale="1" pageWidth="827" pageHeight="1169" math="0" shadow="0">
      <root>
        <mxCell id="3q-UPOu4Qgla8Pr3CCtZ-0" />
        <mxCell id="3q-UPOu4Qgla8Pr3CCtZ-1" parent="3q-UPOu4Qgla8Pr3CCtZ-0" />
      </root>
    </mxGraphModel>
  </diagram>
</mxfile>
